PathFileType	4	(X/Y/Z)	s11c0402.trc
DataRate	CameraRate	NumFrames	NumMarkers	Units	OrigDataRate	OrigDataStartFrame	OrigNumFrames
200	200	4	48	mm	200	1000	2000
Frame#	Time	racr			lacr			c7			jug			rlel			rdr			llel			ldr			s2			lic			ric			lasi			rasi			rpsi			lpsi			rgt			lgt			rth1			rth2			rth3			rth4			rlfc			rmfc			rsh1			rsh2			rsh3			rsh4			rlmal			rcal			rtoe			rmt5			lth1			lth2			lth4			lth3			llfc			lmfc			llmal			lcal			lmt5			lsh1			lsh2			lsh3			lsh4			ltoe			SBIKE			LBIKE			RBIKE			
		X1	Y1	Z1	X2	Y2	Z2	X3	Y3	Z3	X4	Y4	Z4	X5	Y5	Z5	X6	Y6	Z6	X7	Y7	Z7	X8	Y8	Z8	X9	Y9	Z9	X10	Y10	Z10	X11	Y11	Z11	X12	Y12	Z12	X13	Y13	Z13	X14	Y14	Z14	X15	Y15	Z15	X16	Y16	Z16	X17	Y17	Z17	X18	Y18	Z18	X19	Y19	Z19	X20	Y20	Z20	X21	Y21	Z21	X22	Y22	Z22	X23	Y23	Z23	X24	Y24	Z24	X25	Y25	Z25	X26	Y26	Z26	X27	Y27	Z27	X28	Y28	Z28	X29	Y29	Z29	X30	Y30	Z30	X31	Y31	Z31	X32	Y32	Z32	X33	Y33	Z33	X34	Y34	Z34	X35	Y35	Z35	X36	Y36	Z36	X37	Y37	Z37	X38	Y38	Z38	X39	Y39	Z39	X40	Y40	Z40	X41	Y41	Z41	X42	Y42	Z42	X43	Y43	Z43	X44	Y44	Z44	X45	Y45	Z45	X46	Y46	Z46	X47	Y47	Z47	X48	Y48	Z48	
1000	5.0000	858.636928	1322.212372	-95.536961	803.915690	1338.932212	-445.427559	815.245155	1425.940694	-264.802960	783.408587	1237.320875	-276.995451	647.194068	1159.648289	43.952841	776.955427	964.148971	-69.376624	561.619904	1155.657330	-583.794627	759.767660	953.748025	-479.677767	198.859140	1279.754406	-217.768086	406.301355	1288.722967	-433.799731	424.889574	1214.001897	-39.444327	422.203063	1205.229458	-392.640505	437.418355	1156.385234	-82.988566	266.746570	1335.398222	-157.098442	253.181451	1342.119155	-248.133578	304.657286	1084.423472	-32.189496	322.530773	1180.311274	-451.674096	324.186123	953.628687	-28.972852	355.389419	871.053393	-44.521536	341.287040	787.136921	-67.439574	391.332647	876.522606	-53.320627	356.717422	688.146351	-93.756450	340.038225	674.483116	-219.675697	283.828515	549.300157	-74.414664	268.452365	463.598642	-91.121479	214.127489	395.541974	-90.993780	292.583153	455.807183	-121.162669	152.074989	271.308547	-100.571506	88.188561	285.638966	-147.539643	330.343414	128.760846	-149.224144	256.846335	134.052413	-78.422387	445.879516	1094.754341	-470.759391	521.598610	1058.986204	-465.808131	574.008778	1078.854063	-432.280153	574.349019	987.001134	-473.930243	668.826456	889.000138	-453.511051	676.645971	867.766189	-320.718267	315.122058	645.776213	-424.747594	252.928383	666.577266	-388.692606	321.543332	469.887386	-452.045739	570.675900	819.230942	-468.415369	518.662516	751.845996	-453.620382	437.821139	716.788114	-447.404209	540.467282	728.433541	-432.818157	392.648244	402.606596	-386.468475	-214.837226	953.728632	-255.832308	-17.793687	81.021624	-460.895155	-17.806123	80.797109	-61.942236	
1001	5.0050	859.658470	1322.997770	-97.735528	802.639933	1339.441604	-447.661425	815.538736	1425.623151	-267.180763	783.048903	1237.641489	-278.602586	649.290692	1160.489025	42.847318	777.008936	964.128637	-69.954093	560.183930	1154.416304	-585.096134	760.225484	954.049245	-481.281053	199.563038	1280.935255	-216.431923	404.782225	1290.546181	-433.401669	427.145740	1215.093930	-40.291880	421.632321	1206.883260	-392.506922	438.867294	1157.488104	-84.046669	267.302084	1337.004956	-155.801341	253.099650	1343.852812	-246.946130	306.208916	1086.204822	-31.383935	321.938491	1182.166566	-451.351124	324.466869	955.828899	-28.291986	354.804269	872.908844	-43.478233	340.191154	789.119890	-66.256753	390.839751	877.967901	-51.922187	355.792573	689.216579	-92.596248	339.466773	676.760825	-218.847350	281.252245	551.364423	-73.655082	264.597355	465.954326	-90.520782	209.202353	398.784615	-90.606279	288.719348	457.749874	-120.401004	145.457976	275.719305	-100.480934	82.210740	291.455033	-147.718186	320.228974	128.562271	-149.066988	246.771205	135.763760	-78.215924	446.182515	1095.881618	-470.196178	522.340893	1060.916953	-465.141951	574.443210	1081.318548	-432.041286	572.411908	989.677382	-473.631995	671.262384	893.707936	-453.433933	680.386249	872.294568	-319.400148	321.695098	643.907042	-424.231835	258.608597	663.572021	-388.725249	331.831333	468.494472	-452.037473	574.631921	821.690396	-467.101958	523.683344	753.412896	-452.655142	443.469260	716.946313	-446.644359	545.914096	730.297038	-431.693290	404.275346	402.783180	-386.677385	-214.889271	953.735631	-255.871588	-17.787441	81.030829	-460.904580	-17.772141	80.841329	-62.037186	
1002	5.0100	860.654617	1323.521349	-99.928340	801.464258	1339.580058	-449.886108	815.804328	1424.944129	-269.667736	782.443913	1237.741930	-280.062958	651.148839	1161.190125	41.948208	777.009655	963.973805	-69.899497	558.649433	1153.376373	-586.351081	760.808244	954.304387	-483.204186	199.941268	1282.610556	-214.231626	403.342626	1292.396364	-432.837063	429.147484	1215.934898	-41.299223	421.036157	1208.473860	-392.534244	440.239245	1158.741958	-85.041818	267.797268	1338.902577	-154.268860	253.039129	1345.770773	-245.899880	307.782496	1088.193847	-30.433954	321.306777	1183.815965	-451.186096	324.579815	958.452207	-27.729257	355.059642	875.058819	-42.477400	340.070561	791.387305	-65.337949	391.103459	880.040990	-50.662555	356.356750	690.826366	-91.366281	340.706237	678.941203	-217.658491	279.750220	553.796154	-72.784608	261.655005	468.769974	-89.817836	205.159412	402.523684	-90.134232	285.615677	460.167600	-119.791863	139.362177	280.612419	-100.273432	76.812403	298.038737	-147.838329	310.220006	128.624229	-148.942250	236.999263	137.977954	-78.129657	446.263026	1096.840520	-469.576710	527.111174	1061.832941	-462.072434	571.231570	1089.441703	-431.368899	573.447331	991.912189	-472.616175	672.936057	897.230544	-452.835467	683.938221	876.726301	-317.362570	327.865155	641.415366	-423.565886	264.059664	659.569984	-388.630317	341.914622	466.746900	-452.429959	578.170893	823.642109	-465.886757	528.434384	754.300582	-451.558791	448.738546	716.662338	-445.979168	550.824352	731.867262	-430.601808	415.930431	402.486632	-386.755909	-214.947370	953.761061	-255.979070	-17.797843	81.050995	-460.883084	-17.777058	80.853574	-62.066737	
1003	5.0150	861.568419	1323.696437	-102.014067	800.348778	1339.425389	-452.153258	816.196053	1424.151922	-272.060552	781.770513	1237.702481	-281.522623	652.757144	1161.739526	41.328982	777.111218	963.946392	-69.597332	557.108676	1152.483739	-587.414788	761.390651	954.505423	-485.372194	200.206571	1284.372125	-213.022118	402.065199	1294.226998	-432.344738	431.225977	1217.390097	-42.145138	420.365184	1210.084652	-393.020966	441.656242	1160.133446	-85.817216	268.128363	1340.666701	-152.858795	252.416975	1347.878030	-244.085731	309.271638	1090.301143	-29.522192	320.607544	1185.434010	-451.083848	325.765722	960.681214	-27.187408	356.047924	877.418090	-41.593100	341.158617	793.908747	-64.521392	392.238884	882.475239	-49.584988	358.277357	692.601132	-90.186561	343.764455	680.912484	-216.111929	279.195546	556.536783	-71.897469	259.631169	471.869335	-89.083516	201.871712	406.719953	-89.649489	283.486195	462.928143	-118.891670	133.705782	286.072883	-100.150970	72.018038	305.416524	-148.004470	300.262103	129.449744	-148.722666	227.407649	140.831515	-78.007181	446.132904	1097.621712	-468.983854	534.155996	1062.032160	-457.574868	571.266723	1091.284491	-431.263236	574.274249	993.776325	-471.483290	673.912531	900.566785	-451.838307	686.102130	880.638841	-316.296577	333.513468	638.318533	-422.932170	268.863727	654.846687	-388.351236	351.875631	464.231745	-452.485721	581.128036	825.016570	-464.717273	532.597830	754.798246	-450.616598	453.532651	715.771804	-445.395820	555.274414	732.836549	-429.523354	427.207823	401.674769	-386.680978	-214.955313	953.791187	-256.036882	-17.761226	81.094336	-460.923768	-17.775114	80.881360	-62.077368	
